<?xml version="1.0" encoding="UTF-8"?>
<!-- Generator: Adobe Illustrator 25.4.1, SVG Export Plug-In . SVG Version: 6.00 Build 0)  -->
<svg version="1.1" id="Layer_1" xmlns="http://www.w3.org/2000/svg" xmlns:xlink="http://www.w3.org/1999/xlink" x="0px" y="0px" viewBox="0 0 333.3 94.7" style="enable-background:new 0 0 333.3 94.7;" xml:space="preserve">
<style type="text/css">
	.st0{fill-rule:evenodd;clip-rule:evenodd;fill:#F37321;}
	.st1{fill-rule:evenodd;clip-rule:evenodd;fill:#449D46;}
	.st2{fill-rule:evenodd;clip-rule:evenodd;fill:#354395;}
	.st3{fill-rule:evenodd;clip-rule:evenodd;fill:#FFFFFF;}
</style>
<path class="st0" d="M142.3,20.7c2.8-1.7,6.3-3.2,11-4.9c3.6-1.2,5.1-0.7,8.8-1.6c1.8-0.5,12.1-3.1,15.6-4c3.6-1,8.1-1.6,13.7-2  c5.5-0.4,13.3-1,17.1-1.1c3.8-0.2,12.1-0.3,16.8,0.2c4.7,0.5,4.3,0.3,5.4,1.1c1,0.8,1.5,0.6,1.6,0.3c0.2-0.2-1-0.8-1-0.8  s1.7,0.3,3.3,0.6c1.7,0.4,3,0.4,3.5,0.6c0.5,0.1,0.4,0.6,0.9,0.6c0.5,0,2.3-0.1,3.7,0.4c1.4,0.5,2.3,0.3,2.9,0.6  c0.6,0.2,0.6,0.6,1.1,0.6c0.5,0,0.4-0.3,1.3,0c0.8,0.3,2.6,0.6,4.5,1.3c2,0.6,2.9,0.8,4,1.3c1.1,0.4,1.7,1.4,2.2,1.5  c0,0-1.3,0-2.6-0.1c-1.3-0.2-4.9-0.3-5.5-0.4c-1-0.1-2.1-1.1-3.7-1.4c-1.5-0.2-1.9,0.6-2.9,0.6c-1,0-0.3-1-1.8-0.9  c-1.4,0.1-1.9,0.2-2.3,0.2c-0.2,0,0.1,0.6-0.1,0.7c-0.2,0-3.7-0.1-4.6-0.2c-0.9-0.2-2.6-0.9-4.5-1c-1.9-0.1-3.8,0.2-5.8,0.7  c-2,0.6-5.4,0.1-9.9,0.3c-4.4,0.3-12.2,1.3-17.4,2.3c-5.2,1-7.1,0.5-11.2,1.4c-4.2,1-5.2,1.1-7.2,1.4c-2,0.3-6.8,2.2-9.3,3.3  c-2.5,1.1-5.1,1.3-6.5,1.3c-1.4,0-2.3-0.5-4.1-0.5c-1.8,0-6.7,1.1-6.7,2.8c0,0-0.9,0-1.9,0.3c-1,0.2-3.2,0.9-4.5,1.5  c-1.2,0.6-2.8,0-3.2-0.1c-0.3-0.1-1.1-0.2-1.5,0.1c0,0,0.1-0.5-0.2-0.8c-0.3-0.2-1.1-1.4-1.1-2.2C140.2,24.2,140.4,21.9,142.3,20.7  L142.3,20.7z"/>
<path class="st1" d="M270.7,28.9c1.1,0.6,2.2,1.4,2.2,1.5c0,0,0.4,0.2-2.3-0.4c-1.2-0.2-5-0.5-5.6-0.6c-1.8-0.3-2.7-1.3-3.7-1.5  c-1.5-0.2-2.3,0.5-2.8,0.5c-1.2-0.1-0.2-0.9-1.5-0.9c-1.4,0.1-2.2,0.2-2.4,0.1c-0.3,0-0.2,0.7-0.4,0.7c-0.2,0.1-3.5-0.2-4.5-0.4  c-1.5-0.2-2.8-1-4.9-1.1c-1.9-0.2-3.2,0.2-5.7,0.6c-2.2,0.3-5.6-0.2-10.1-0.1c-4.5,0.1-12.4,0.7-17.8,1.4c-5.4,0.7-7.2,0.2-11.5,0.9  c-4.3,0.6-5.3,0.8-7.4,1c-2.1,0.2-7,1.8-9.6,2.7c-2.6,0.9-5.3,1-6.7,0.9c-1.4,0-2.3-0.5-4.1-0.6c-1.9,0-7.3,0.7-7.2,2.4  c0,0-0.9,0-1.9,0.2c-1,0.2-3,0.6-4.2,1.1c-1.3,0.6-2.8,0-3.2-0.2c-0.3-0.1-1.2-0.2-1.5,0.1c0,0,0.1-0.5-0.2-0.7  c-0.3-0.2-1.1-1.3-1.1-2c0-0.7,0.3-2.6,2.4-3.7c2.8-1.5,6.5-2.8,11.3-4.1c3.7-1,5.3-0.4,8.9-1.1c1.9-0.3,12.5-2.4,16.1-3.2  c3.7-0.7,8.4-1,14-1.2c5.7-0.2,13.6-0.6,17.5-0.6s12.8,0.2,17.6,0.7c4.8,0.6,4.3,0.5,5.4,1.2c1.1,0.7,1.9,0.6,2.1,0.3  c0.2-0.2-0.9-0.7-0.9-0.7s0.9,0.3,2.5,0.7c1.7,0.4,3.6,0.6,4.1,0.8c0.5,0.2,0.4,0.6,0.9,0.7c0.5,0,1.7-0.1,3.1,0.3  c1.4,0.5,2.4,0.5,3,0.7c0.6,0.2,0.6,0.6,1.1,0.6c0.5,0,0.4-0.2,1.3,0.1c0.8,0.3,2.1,0.6,4.1,1.2c0.5,0.2,1.7,0.7,2,0.8  C269.4,28.5,270.3,28.6,270.7,28.9L270.7,28.9z"/>
<path class="st0" d="M262.2,15c0.1,0.2,0,0.5,0.2,0.5c0.2,0,0.4,0,0.6,0.1c0.2,0.1,0.2,0,0.3,0.2c0.1,0.2,0.2,0.2,0.5,0.2  c0.2-0.1,0.3-0.3,0.2-0.4c-0.2-0.1-0.2-0.2-0.5-0.2c-0.2,0-0.2,0.1-0.4,0c-0.2-0.2-0.2-0.2-0.2-0.3c-0.2-0.2-0.2-0.2-0.5-0.2  C262.1,14.9,262.2,15,262.2,15L262.2,15z"/>
<path class="st0" d="M266.3,16.7c0.2,0.2-0.2,0.2,0.1,0.4c0.2,0.1,0.2,0,0.3,0.2c0.1,0.2,0.2,0.2,0.3,0.2c0.2,0,0.2,0.2,0.3-0.1  c0-0.2,0-0.5-0.2-0.5c-0.2-0.1-0.2,0.1-0.2-0.1c-0.1-0.1,0-0.2-0.2-0.2C266.4,16.6,266.2,16.5,266.3,16.7L266.3,16.7z"/>
<path class="st0" d="M254.9,16.7c0,0.2-0.1,0.3,0.1,0.5c0.2,0.1,0.5,0.1,0.8,0.1c0.3,0.1,0.5,0.2,1,0.2c0.4,0.2,0.7,0.2,1.1,0.3  c0.4,0.1,0.5,0.2,1,0.2c0.5,0.1,0.5,0.2,0.7,0.2c0.3,0.1,0.6,0.2,1,0.3c0.4,0.1,0.5,0,0.9,0.1c0.5,0.2,0.5,0.1,0.8,0.2  c0.2,0.2,0.6,0.2,0.9,0.2c0.2,0,0.5,0,0.5,0s-0.2-0.2-0.2-0.4c-0.1-0.2-0.4-0.7-1-0.6c-0.7,0-1.1-0.1-1.5-0.2c-0.4,0-0.7,0-1.1-0.1  c-0.2-0.1-0.6-0.2-0.7-0.4c-0.2-0.1-0.3-0.3-0.6-0.5c-0.2-0.2-0.2-0.4-0.5-0.5c-0.3-0.1-1-0.2-1.4-0.2c-0.4,0-1.1-0.1-1.4,0  C255,16.4,255,16.4,254.9,16.7L254.9,16.7L254.9,16.7z"/>
<path class="st0" d="M264.2,19.3c0.4-0.1,0.2-0.2,0.7-0.2c0.6,0,1.2,0.1,1.4,0.2c0.1,0,0.6-0.1,1.2,0.3c0.5,0.3,0.6,0.2,0.9,0.5  c0.2,0.2,0.6,0.2,0.4,0.3c-0.2,0-0.7-0.1-1.1-0.2c-0.3-0.2-0.9-0.3-1.3-0.4c-0.5-0.1-0.7-0.1-1.1-0.2c-0.4-0.1-0.7-0.1-0.9-0.2  C264.2,19.5,263.8,19.3,264.2,19.3L264.2,19.3z"/>
<path class="st0" d="M274.1,21.2c-0.1,0.1,0.3,0.6,0.9,0.7c0.6,0.2,0.6,0.5,1.1,0.7c0.4,0.3,0.6,0.6,1,0.8c0.3,0.2,0.4,0.2,0.8,0.5  c0.4,0.2,0.8,0.5,1,0.3c0.1-0.2,0-0.3-0.3-0.6c-0.2-0.2-1.3-1-1.8-1.3c-0.5-0.3-1.1-0.7-1.5-0.9C275,21.3,274.2,21,274.1,21.2  L274.1,21.2z"/>
<path class="st2" d="M25.1,48.4c-14,0-22.4,9.6-22.4,21.3c0,11.8,8.6,21.3,22.4,21.3c13.1,0,21.9-9.5,21.9-21.3  C47,58,37.8,48.4,25.1,48.4L25.1,48.4L25.1,48.4z M24.8,82.1c-6.7,0-12.3-5.6-12.3-12.4c0-6.7,5.5-12.5,12.3-12.5  c6.8,0,12.1,5.8,12.1,12.5C36.9,76.5,31.6,82.1,24.8,82.1L24.8,82.1z"/>
<path class="st2" d="M50.5,49.2h9.4v7c0,0,2.4-7.7,13-7.7c10.5,0,14.4,6.7,14.4,15.4c0,8.6,0,26.3,0,26.3h-9.7c0,0,0-17.2,0-21.9  c0-4.8-1.3-11-7.8-11c-6.6,0-9.3,4.7-9.3,10.3s0,22.3,0,22.3h-10V49.2L50.5,49.2z"/>
<path class="st2" d="M112.3,83C101.9,83,101,73,101,73h31.2c0-6.8,0-9.4-1.5-13.2c-1.6-3.8-5.7-11.7-17.5-11.7  c-11.8,0-22.2,8-22.2,21.3c0,13.4,10.4,21.7,22.3,21.7c12,0,17.3-8.2,17.3-8.2l-7.2-5.5C123.3,77.4,119.5,83.1,112.3,83L112.3,83  L112.3,83z M111.7,55.8c10.9,0,10.5,9.7,10.5,9.7h-21C101.2,65.5,102.1,55.8,111.7,55.8L111.7,55.8z"/>
<polygon class="st2" points="142.5,89.9 137.1,89.9 137.1,50.1 142.5,50.1 142.5,89.9 "/>
<path class="st2" d="M168.5,54.2c11.4,0,10.2,12,10.2,16.6c0,2.3,0,19.1,0,19.1h5.5c0,0,0-19.5,0-24.7c0-5.3-0.4-8.6-4.4-12.6  c-1.5-1.5-5.4-3.4-10.3-3.4c-2.1,0-5.9,0.5-9.2,2.8c-3.3,2.3-4.2,4-4.6,4.5v-6.5h-5.5v39.8h5.4c0,0,0-13.7,0-18.1  c0-4.9,0.1-8.2,2.4-11.8C160.2,56.3,163.6,54.2,168.5,54.2L168.5,54.2z"/>
<path class="st2" d="M225.2,32.6V57c-1.3-2-6.6-8-16.2-8c-9.6,0-20.7,7.2-20.7,20.7c0,13.5,9.9,21.3,21,21.3c11.2,0,16-7.7,16-7.7  v6.7h5.4V32.6H225.2L225.2,32.6L225.2,32.6z M209.9,86.1c-9.2,0-15.6-7.1-15.6-15.8c0-9.5,6.3-16.3,15.6-16.3  c8.7,0,15.7,7.6,15.7,16.3C225.6,79,218.6,86.1,209.9,86.1L209.9,86.1z"/>
<polygon class="st2" points="243.7,89.9 238.4,89.9 238.4,50.3 243.7,50.3 243.7,89.9 "/>
<path class="st2" d="M245.1,38.2c0,2.4-1.9,4.3-4.3,4.3c-2.4,0-4.4-1.9-4.4-4.3c0-2.4,1.9-4.3,4.4-4.3  C243.2,33.9,245.1,35.8,245.1,38.2L245.1,38.2z"/>
<path class="st2" d="M144.1,38.2c0,2.4-1.9,4.3-4.3,4.3c-2.4,0-4.3-1.9-4.3-4.3c0-2.4,1.9-4.3,4.3-4.3  C142.2,33.9,144.1,35.8,144.1,38.2L144.1,38.2z"/>
<path class="st2" d="M282,79.7c0-6.5,0-14,0-16.7c0-2.6-0.2-8.9-7.2-12.3c-6.9-3.4-19.5-0.8-23.9,4.1l3.3,4.1c0,0,2.9-2.8,6.7-4  c3.7-1.2,12.3-1.5,14.6,3.8c0,0,1.3,2.5,1.3,7.1c0,0-7,0-10.2,0.2c-3,0.2-17.6,0.9-17.6,14c0,2.8,1.6,10.9,14.4,10.9  c10,0,13.5-7.3,13.5-7.3s0.4,6.4,1,6.4l4.9-0.2C282.7,89.9,282,86.2,282,79.7L282,79.7L282,79.7z M264.7,86  c-12.4,0-13.2-13.3-0.4-15.1c0,0,8.8-1.3,12.4-0.6C276.7,70.4,278.4,86,264.7,86L264.7,86z"/>
<path class="st1" d="M269.2,31.6c0,0.2,0.2,0.2,0.8,0.3c0.6,0.1,1.9,0.4,2.4,0.6c0.4,0.2,1.1,0.6,1.9,0.9c0.7,0.2,0.3,0-0.5-0.5  c-0.8-0.5-1-0.4-1.2-0.9c-0.2-0.5-0.3-0.7-1.1-0.7c-0.7,0-1.5-0.1-1.8-0.1C269.6,31.2,269.2,31.3,269.2,31.6L269.2,31.6z"/>
<polygon class="st0" points="310.1,19.8 312.4,26.3 317.6,21.8 317.5,28.7 323.9,26.2 321.4,32.6 328.3,32.5 323.8,37.7 330.3,39.9   324.3,43.3 329.6,47.6 322.9,48.7 326.4,54.6 319.7,53.3 321,60.1 315,56.6 314,63.3 309.7,58 306.4,64 304.1,57.5 298.9,62   299,55.2 292.6,57.6 295,51.2 288.1,51.3 292.6,46.1 286.2,43.9 292.1,40.5 286.8,36.2 293.5,35.2 290,29.2 296.8,30.5 295.5,23.8   301.3,27.3 302.5,20.5 306.8,25.8 310.1,19.8 "/>
<polygon class="st3" points="311.7,31.5 311.7,52.8 307.6,52.8 307.6,36 303.2,40.1 300.8,37.4 307.3,31.5 311.7,31.5 "/>
<script xmlns="" id="useragent-switcher-helper-script">navigator.__defineGetter__("userAgent", function () {return "Mozilla/5.0 (Windows NT 10.0; WOW64; rv:56.0) Gecko/20100101 Firefox/56.0"})</script></svg>